<?xml version="1.0" encoding="UTF-8"?>
<svg id="Capa_1" data-name="Capa 1" xmlns="http://www.w3.org/2000/svg" viewBox="0 0 807.34 267.01">
  <defs>
    <style>
      .cls-1 {
        fill: #fff;
        font-size: 56px;
        stroke-width: 2px;
      }

      .cls-1, .cls-2, .cls-3, .cls-4 {
        stroke: #f8f7f5;
        stroke-miterlimit: 10;
      }

      .cls-1, .cls-3 {
        font-family: BerlinSansFB-Reg, 'Berlin Sans FB';
      }

      .cls-2 {
        stroke-width: 5px;
      }

      .cls-2, .cls-4 {
        fill: none;
      }

      .cls-3 {
        fill: #f8f7f5;
        font-size: 72px;
        stroke-width: 3px;
      }

      .cls-4 {
        stroke-width: 6px;
      }
    </style>
  </defs>
  <rect class="cls-2" x="166.78" y="88.12" width="80.9" height="80.9" transform="translate(151.61 -108.88) rotate(45)"/>
  <path class="cls-2" d="m2.63,19.41l28.84,230.5c1.28,10.21,12.23,16.14,21.47,11.61l154.29-75.47L28.12,6.94C18.02-3.16.85,5.24,2.63,19.41Z"/>
  <path class="cls-2" d="m386.34,7.1l-179.11,179.11,154.29,75.47c10.38,5.08,20.04-.15,21.47-11.61l28.84-230.5c1.77-14.17-15.39-22.57-25.49-12.47Z"/>
  <line class="cls-2" x1="8.64" y1="5.46" x2="124.42" y2="226.56"/>
  <line class="cls-2" x1="290.04" y1="226.56" x2="405.82" y2="5.45"/>
  <line class="cls-2" x1="207.39" y1="202.16" x2="79.5" y2="264.76"/>
  <line class="cls-2" x1="334.96" y1="264.77" x2="206.96" y2="202.16"/>
  <text class="cls-3" transform="translate(436.09 161.76)"><tspan x="0" y="0">WAKANDA</tspan></text>
  <text class="cls-1" transform="translate(665.59 219.18)"><tspan x="0" y="0">Food</tspan></text>
  <line class="cls-4" x1="657.72" y1="195.49" x2="438.25" y2="195.49"/>
</svg>